<?xml version="1.0" encoding="UTF-8"?>
<svg width="33px" height="34px" viewBox="0 0 33 34" version="1.1" xmlns="http://www.w3.org/2000/svg" xmlns:xlink="http://www.w3.org/1999/xlink">
    <title>编组</title>
    <g id="高捷小程序" stroke="none" stroke-width="1" fill="none" fill-rule="evenodd">
        <g id="登录页" transform="translate(-287.000000, -443.000000)">
            <g id="编组-5" transform="translate(39.000000, 432.000000)">
                <g id="编组" transform="translate(248.000000, 11.960000)">
                    <rect id="矩形" fill="#FFFFFF" opacity="0" transform="translate(16.000000, 16.000000) scale(-1, 1) translate(-16.000000, -16.000000) " x="0" y="0" width="32" height="32"></rect>
                    <path d="M8.31199688,11.5555556 C9.61813649,12.8 10.9242761,13.8666667 12.2304157,15.1111111 L12.4170071,15.4666667 C12.0438243,17.0666667 13.349964,19.0222222 15.4024691,19.2 L17.0817914,19.2 C18.2013397,20.2666667 19.3208879,21.1555556 20.6270275,22.2222222 C19.6940707,22.5777778 18.7611138,22.9333333 17.8281569,23.1111111 C13.7231467,23.6444444 10.364502,22.4 7.37904001,19.7333333 C6.44608314,18.8444444 5.69971765,17.9555556 5.13994353,16.7111111 C4.95335216,16.3555556 4.95335216,15.8222222 5.13994353,15.4666667 C5.88630902,14.0444444 7.00585726,12.6222222 8.31199688,11.5555556 Z M11.4840502,9.6 C14.0963295,8.53333333 16.8952001,8.35555556 19.5074793,9.24444444 C22.866124,10.3111111 25.1052205,12.2666667 26.7845428,15.2888889 C26.9711342,15.6444444 27.1577256,16.1777778 26.7845428,16.5333333 C26.0381773,17.9555556 25.1052205,19.3777778 23.6124895,20.4444444 C23.2393067,20.0888889 22.6795326,19.7333333 22.3063499,19.3777778 C21.373393,18.6666667 20.6270275,17.9555556 19.6940707,17.0666667 C19.5074793,16.8888889 19.5074793,16.7111111 19.5074793,16.5333333 C19.6940707,14.7555556 18.387931,12.9777778 16.5220173,12.8 L14.6561036,12.8 C13.7231467,11.7333333 12.6035985,10.6666667 11.4840502,9.6 C11.4840502,9.77777778 11.4840502,9.77777778 11.4840502,9.6 Z M7.37904001,8 C7.56563138,8 7.75222276,8.17777778 7.93881413,8.35555556 L20.8136189,19.5555556 C22.1197585,20.6222222 23.2393067,21.6888889 24.5454464,22.7555556 C24.7320377,22.9333333 24.9186291,23.2888889 24.7320377,23.4666667 C24.7320377,23.6444444 24.358855,23.8222222 24.1722636,24 C23.9856722,24 23.6124895,23.8222222 23.4258981,23.6444444 L17.8281569,18.8444444 C14.0963295,15.6444444 10.364502,12.4444444 6.81926589,9.24444444 C6.63267452,9.06666667 6.44608314,8.88888889 6.63267452,8.53333333 C6.63267452,8.35555556 7.00585726,8.17777778 7.19244864,8 L7.37904001,8 Z" id="形状" fill="#C8C8CB" fill-rule="nonzero" transform="translate(16.000000, 16.000000) scale(-1, 1) translate(-16.000000, -16.000000) "></path>
                </g>
            </g>
        </g>
    </g>
</svg>