<svg id="图层_1" data-name="图层 1" xmlns="http://www.w3.org/2000/svg" xmlns:xlink="http://www.w3.org/1999/xlink" viewBox="0 0 1023.7 114.14"><defs><style>.cls-1{fill:url(#未命名的渐变_7);}.cls-2{font-size:52px;fill:#fff;font-family:MicrosoftYaHei, Microsoft YaHei;}</style><linearGradient id="未命名的渐变_7" x1="14.04" y1="104.52" x2="128.18" y2="104.52" gradientUnits="userSpaceOnUse"><stop offset="0" stop-color="#fff21f"/><stop offset="0.01" stop-color="#ffef1c"/><stop offset="0.1" stop-color="#fddc0d"/><stop offset="0.19" stop-color="#fcd103"/><stop offset="0.28" stop-color="#fccd00"/><stop offset="0.64" stop-color="#f1942e"/><stop offset="0.89" stop-color="#ea652d"/><stop offset="1" stop-color="#e5352b"/></linearGradient></defs><title>食品产业集群</title><path class="cls-1" d="M98.88,142.73c-37,26.06-54.06-3.12-54.06-3.12-18.32-3.52-16-17.16-16-17.16,2.79-14.38,18.57-15.62,18.57-15.62s4.4-5.87,5.14-6.45A32.83,32.83,0,0,1,59.76,96c5.66-2.37,12.87-1.24,17.9,1.77.42.25,5.68,4.92,5.34,5,8.68-2.68,16.32,0,18.35,7.62,2,7.48-4.26,14.48-11.19,18.63-11.59,6.94-30.22,11.52-36.18-2.91a10.84,10.84,0,0,1,1.26-9.42c3-4.27,11.54-7.89,17.44-7.24C76.16,109.8,80,112,81,114.9c1.13,3.16-3,6.5-6.49,7.14a14.11,14.11,0,0,1-4,.13,18.56,18.56,0,0,1-7.28-2.47c-.43-.25-2.32-1-2-1.46,1-1.6-8.1,4.82-2.73,9.84,2.41,2.25,5.57,2.89,9,3.27a21.32,21.32,0,0,0,14-3.22,33.55,33.55,0,0,0,5.69-4.4,24.26,24.26,0,0,0,3.34-4.07,7.68,7.68,0,0,0,1.07-1.7c3-11.39-13.17-9.44-13.17-9.44-2.94-6.73-10.82-7.23-10.82-7.23-15-.43-12.78,11.95-12.78,11.95-14.06-2.82-17,6.09-17,6.09-6.22,13.56,12.51,14.42,12.51,14.42,1.66,9.68,27.24,16.65,47.52,1.43,10.76-8.07,20.4-10.8,27.07-11.58A57.06,57.06,0,0,0,75.71,47.66a7.64,7.64,0,0,1,1.48,1c3.57,3.57,3.36,7.8,1.39,11.77-2.36,4.78-6.61,8.87-10.43,13.1a26,26,0,0,0-4.51,6.68c-.94,2.1-3.19,6.9-1.71,9a18.34,18.34,0,0,1-3-8.87c-.51-6.32,4-11.94,8.08-17.28,3.54-4.58,8.1-10.19,6.52-15.59-.8,0-1.6-.06-2.41-.06s-1.88,0-2.81.07c.29,3.62-1,8.15-6.09,13.35,0,0-8.5,11-5.52,15.81,0,0-9.82-5.38.94-21.25a50.43,50.43,0,0,0,3.49-7.1,57.07,57.07,0,1,0,62.5,78.56C111.72,132.31,98.88,142.73,98.88,142.73ZM74.07,73s7.31-9.88,7.08-17c0,0,11.54,9.76-3,22.66,0,0-9.53,10.46-7,15.45C71.09,94.18,61.81,88.24,74.07,73Z" transform="translate(-14.04 -47.46)"/><text class="cls-2" transform="translate(139.7 67.54)">食品饮料行业数字化特色产业集群平台</text></svg>