<?xml version="1.0" encoding="UTF-8"?>
<svg width="33px" height="33px" viewBox="0 0 33 33" version="1.1" xmlns="http://www.w3.org/2000/svg" xmlns:xlink="http://www.w3.org/1999/xlink">
    <title>编组</title>
    <defs>
        <filter id="filter-1">
            <feColorMatrix in="SourceGraphic" type="matrix" values="0 0 0 0 0.600220 0 0 0 0 0.600220 0 0 0 0 0.615178 0 0 0 1.000000 0"></feColorMatrix>
        </filter>
    </defs>
    <g id="页面-1" stroke="none" stroke-width="1" fill="none" fill-rule="evenodd">
        <g id="登录" transform="translate(-820.000000, -458.000000)">
            <g id="编组" transform="translate(756.000000, 212.000000)">
                <g id="Icon_password_32" transform="translate(40.000000, 238.000000)" filter="url(#filter-1)">
                    <g transform="translate(24.000000, 8.000000)" id="编组">
                        <rect id="矩形" fill="#FFFFFF" opacity="0" x="0" y="0" width="32" height="32"></rect>
                        <path d="M24.1404794,13.5217391 L23.1839577,13.5217391 L23.1839577,10.173913 C23.1839577,6.21187027 19.9720874,3 16.0100446,3 C12.0480019,3 8.8361316,6.21187027 8.8361316,10.173913 L8.8361316,13.5217391 L7.87960985,13.5217391 C6.29479274,13.5217391 5.01004463,14.8064872 5.01004463,16.3913043 L5.01004463,18.7826087 C5.01004463,24.8577409 9.93491238,29.7826087 16.0100446,29.7826087 C22.0851769,29.7826087 27.0100446,24.8577409 27.0100446,18.7826087 L27.0100446,16.3913043 C27.0100446,15.6302483 26.7077163,14.9003632 26.1695684,14.3622153 C25.6314206,13.8240674 24.9015354,13.5217391 24.1404794,13.5217391 Z M11.7056968,10.173913 C11.7056968,7.7966874 13.632819,5.86956529 16.0100446,5.86956529 C18.3872703,5.86956529 20.3143925,7.7966874 20.3143925,10.173913 L20.3143925,13.5217391 L11.7056968,13.5217391 L11.7056968,10.173913 Z M16.9665664,22.1304348 C16.9665664,22.6587071 16.538317,23.0869565 16.0100446,23.0869565 C15.4817723,23.0869565 15.0535229,22.6587071 15.0535229,22.1304348 L15.0535229,18.3043478 C15.0535229,17.7760754 15.4817723,17.3478261 16.0100446,17.3478261 C16.538317,17.3478261 16.9665664,17.7760754 16.9665664,18.3043478 L16.9665664,22.1304348 Z" id="形状" fill="#99999D" fill-rule="nonzero"></path>
                    </g>
                </g>
            </g>
        </g>
    </g>
</svg>