<?xml version="1.0" encoding="UTF-8"?>
<svg width="33px" height="33px" viewBox="0 0 33 33" version="1.1" xmlns="http://www.w3.org/2000/svg" xmlns:xlink="http://www.w3.org/1999/xlink">
    <title>编组</title>
    <defs>
        <filter id="filter-1">
            <feColorMatrix in="SourceGraphic" type="matrix" values="0 0 0 0 0.600220 0 0 0 0 0.600220 0 0 0 0 0.615178 0 0 0 1.000000 0"></feColorMatrix>
        </filter>
    </defs>
    <g id="页面-1" stroke="none" stroke-width="1" fill="none" fill-rule="evenodd">
        <g id="登录" transform="translate(-820.000000, -394.000000)">
            <g id="编组" transform="translate(756.000000, 212.000000)">
                <g id="Icon_account_32" transform="translate(40.000000, 174.000000)" filter="url(#filter-1)">
                    <g transform="translate(24.000000, 8.000000)" id="编组">
                        <rect id="矩形" fill="#FFFFFF" opacity="0" x="0" y="0" width="32.1077441" height="32"></rect>
                        <path d="M21.0140726,5.4683563 C21.2513131,6.40924421 21.274725,6.48771564 21.252874,7.45399133 C21.2442896,7.82634598 21.0273394,9.54887091 21.0858691,10.0773991 C21.1342537,10.5128387 21.2442896,10.5474584 21.4190984,10.9067345 C21.7218923,11.5314287 21.6204407,12.3930758 21.5041616,13.0231553 C21.4401691,13.3678141 21.3059409,13.8586453 21.1006966,14.1402192 C20.875162,14.4510277 20.4233124,14.4525663 20.2243113,14.8149197 C19.9363449,15.3357546 20.0986674,16.0673854 19.9176154,16.6305333 C19.7115907,17.268306 19.1863838,17.312927 19.147364,18.148417 C19.4041145,18.1838061 19.6608649,18.2207339 19.9176154,18.2561229 C20.1751463,18.7954217 20.6465058,19.8809432 21.1280105,20.2079075 C21.5314755,20.3163828 21.9341601,20.4256273 22.3376251,20.5333332 C23.7517037,21.1049437 25.3218616,21.7881069 26.7375009,22.3766426 C28.0274964,22.9128641 29.5711208,23.1044267 30.037798,24.4376718 C30.037798,24.4376718 30.037798,24.4376718 30.037798,24.4376718 C30.037798,26.7732955 28.1444008,28.6666926 25.8087771,28.6666667 L6.29817988,28.6666667 C3.96255986,28.6666859 2.06916573,26.7732918 2.06916573,24.4376718 C2.06916573,24.4376718 2.06916573,24.4376718 2.06916573,24.4376718 C2.53506246,23.1044267 4.07946727,22.9136334 5.36946279,22.3766426 C6.78588256,21.7881069 8.3568208,21.1049437 9.76933858,20.5333332 C10.1728036,20.4256273 10.5762686,20.3163828 10.9797336,20.2079075 C11.4612383,19.8809432 11.9325978,18.7954217 12.1893483,18.2561229 L12.7621594,18.1191826 C12.6326135,17.4060157 12.1846659,17.3506241 11.9981511,16.8467144 C11.9247938,16.0873879 11.852217,15.3280614 11.7788597,14.5695041 C11.7819813,14.6056625 11.252092,14.4741075 11.1818564,14.4317944 C10.4350169,13.9701977 10.4201893,12.0961152 10.3483928,11.3167862 C10.3156162,10.9605874 10.8174112,10.6682428 10.6785006,10.0150836 C9.85908419,6.18998574 11.0328006,4.4005293 12.8862424,3.80660823 C14.1731164,3.29269726 16.5767378,2.3395001 18.8188171,3.69890234 L19.3744594,4.20665869 L20.2750371,4.3597549 C20.7261063,4.61671045 21.0140726,5.4683563 21.0140726,5.4683563 Z" id="路径" fill="#99999D" fill-rule="nonzero"></path>
                    </g>
                </g>
            </g>
        </g>
    </g>
</svg>